<svg xmlns="http://www.w3.org/2000/svg" xmlns:xlink="http://www.w3.org/1999/xlink" width="180" height="180" fill="none" viewBox="0 0 180 180"><linearGradient id="a" x1="44.5" x2="150.5" y1="30.305" y2="149.805" gradientUnits="userSpaceOnUse"><stop offset="0" stop-color="#ac7ff4"/><stop offset="1" stop-color="#18b6f6"/></linearGradient><clipPath id="b"><path d="m0 0h180v180h-180z"/></clipPath><mask id="c" width="154" height="154" x="13" y="17" maskUnits="userSpaceOnUse"><path fill="#fff" d="m144.228 148.041c29.866-29.831 29.866-78.1966 0-108.0275-29.865-29.8309-78.2865-29.8309-108.1519 0-29.8654 29.8309-29.8654 78.1965 0 108.0275s78.2869 29.831 108.1519 0z"/></mask><mask id="d" width="154" height="154" x="13" y="17" maskUnits="userSpaceOnUse"><path fill="#fff" d="m144.228 148.041c29.866-29.831 29.866-78.1966 0-108.0275-29.865-29.8309-78.2865-29.8309-108.1519 0-29.8654 29.8309-29.8654 78.1965 0 108.0275s78.2869 29.831 108.1519 0z"/></mask><mask id="e" width="154" height="154" x="13" y="17" maskUnits="userSpaceOnUse"><path fill="#fff" d="m144.228 148.041c29.866-29.831 29.866-78.1966 0-108.0275-29.865-29.8309-78.2865-29.8309-108.1519 0-29.8654 29.8309-29.8654 78.1965 0 108.0275s78.2869 29.831 108.1519 0z"/></mask><mask id="f" width="154" height="154" x="13" y="17" maskUnits="userSpaceOnUse"><path fill="#fff" d="m144.228 148.041c29.866-29.831 29.866-78.1966 0-108.0275-29.865-29.8309-78.2865-29.8309-108.1519 0-29.8654 29.8309-29.8654 78.1965 0 108.0275s78.2869 29.831 108.1519 0z"/></mask><mask id="g" width="154" height="154" x="13" y="17" maskUnits="userSpaceOnUse"><path fill="#fff" d="m144.228 148.041c29.866-29.831 29.866-78.1966 0-108.0275-29.865-29.8309-78.2865-29.8309-108.1519 0-29.8654 29.8309-29.8654 78.1965 0 108.0275s78.2869 29.831 108.1519 0z"/></mask><mask id="h" width="154" height="154" x="13" y="17" maskUnits="userSpaceOnUse"><path fill="#fff" d="m144.228 148.041c29.866-29.831 29.866-78.1966 0-108.0275-29.865-29.8309-78.2865-29.8309-108.1519 0-29.8654 29.8309-29.8654 78.1965 0 108.0275s78.2869 29.831 108.1519 0z"/></mask><mask id="i" width="154" height="154" x="13" y="17" maskUnits="userSpaceOnUse"><path fill="#fff" d="m144.228 148.041c29.866-29.831 29.866-78.1966 0-108.0275-29.865-29.8309-78.2865-29.8309-108.1519 0-29.8654 29.8309-29.8654 78.1965 0 108.0275s78.2869 29.831 108.1519 0z"/></mask><mask id="j" width="154" height="154" x="13" y="17" maskUnits="userSpaceOnUse"><path fill="#fff" d="m144.228 148.041c29.866-29.831 29.866-78.1966 0-108.0275-29.865-29.8309-78.2865-29.8309-108.1519 0-29.8654 29.8309-29.8654 78.1965 0 108.0275s78.2869 29.831 108.1519 0z"/></mask><mask id="k" width="154" height="154" x="13" y="17" maskUnits="userSpaceOnUse"><path fill="#fff" d="m144.228 148.041c29.866-29.831 29.866-78.1966 0-108.0275-29.865-29.8309-78.2865-29.8309-108.1519 0-29.8654 29.8309-29.8654 78.1965 0 108.0275s78.2869 29.831 108.1519 0z"/></mask><mask id="l" width="154" height="154" x="13" y="17" maskUnits="userSpaceOnUse"><path fill="#fff" d="m144.228 148.041c29.866-29.831 29.866-78.1966 0-108.0275-29.865-29.8309-78.2865-29.8309-108.1519 0-29.8654 29.8309-29.8654 78.1965 0 108.0275s78.2869 29.831 108.1519 0z"/></mask><mask id="m" width="154" height="154" x="13" y="17" maskUnits="userSpaceOnUse"><path fill="#fff" d="m144.228 148.041c29.866-29.831 29.866-78.1966 0-108.0275-29.865-29.8309-78.2865-29.8309-108.1519 0-29.8654 29.8309-29.8654 78.1965 0 108.0275s78.2869 29.831 108.1519 0z"/></mask><mask id="n" width="154" height="154" x="13" y="17" maskUnits="userSpaceOnUse"><path fill="#fff" d="m144.228 148.041c29.866-29.831 29.866-78.1966 0-108.0275-29.865-29.8309-78.2865-29.8309-108.1519 0-29.8654 29.8309-29.8654 78.1965 0 108.0275s78.2869 29.831 108.1519 0z"/></mask><mask id="o" width="154" height="154" x="13" y="17" maskUnits="userSpaceOnUse"><path fill="#fff" d="m144.228 148.041c29.866-29.831 29.866-78.1966 0-108.0275-29.865-29.8309-78.2865-29.8309-108.1519 0-29.8654 29.8309-29.8654 78.1965 0 108.0275s78.2869 29.831 108.1519 0z"/></mask><mask id="p" width="154" height="154" x="13" y="17" maskUnits="userSpaceOnUse"><path fill="#fff" d="m144.228 148.041c29.866-29.831 29.866-78.1966 0-108.0275-29.865-29.8309-78.2865-29.8309-108.1519 0-29.8654 29.8309-29.8654 78.1965 0 108.0275s78.2869 29.831 108.1519 0z"/></mask><mask id="q" width="154" height="154" x="13" y="17" maskUnits="userSpaceOnUse"><path fill="#fff" d="m144.228 148.041c29.866-29.831 29.866-78.1966 0-108.0275-29.865-29.8309-78.2865-29.8309-108.1519 0-29.8654 29.8309-29.8654 78.1965 0 108.0275s78.2869 29.831 108.1519 0z"/></mask><mask id="r" width="154" height="154" x="13" y="17" maskUnits="userSpaceOnUse"><path fill="#fff" d="m144.228 148.041c29.866-29.831 29.866-78.1966 0-108.0275-29.865-29.8309-78.2865-29.8309-108.1519 0-29.8654 29.8309-29.8654 78.1965 0 108.0275s78.2869 29.831 108.1519 0z"/></mask><mask id="s" width="154" height="154" x="13" y="17" maskUnits="userSpaceOnUse"><path fill="#fff" d="m144.228 148.041c29.866-29.831 29.866-78.1966 0-108.0275-29.865-29.8309-78.2865-29.8309-108.1519 0-29.8654 29.8309-29.8654 78.1965 0 108.0275s78.2869 29.831 108.1519 0z"/></mask><g clip-path="url(#b)"><circle cx="90" cy="94.305" r="81" fill="url(#a)"/><g mask="url(#c)"><path fill="#e41313" d="m320.694 68.4368h-308.3864v50.9262h308.3864z"/></g><g mask="url(#d)"><path fill="#e41313" d="m320.694 119.359h-308.3864v50.927h308.3864z"/></g><g mask="url(#e)"><path fill="#2e2c84" d="m168.002 17.5105h-155.6944v76.517h155.6944z"/></g><g mask="url(#f)"><path fill="#fff" d="m85.7812 40.3124 4.375-12.4582 4.375 12.4582z"/></g><g mask="url(#g)"><path fill="#fff" d="m94.5315 40.0723 10.3365-8.2293-2.929 12.8773z"/></g><g mask="url(#h)"><path fill="#fff" d="m101.55 44.4614 13.048-2.122-8.86 9.7989z"/></g><g mask="url(#i)"><path fill="#fff" d="m94.5214 71.2713-4.4436 12.4392-4.3063-12.4849z"/></g><g mask="url(#j)"><path fill="#fff" d="m85.7711 71.4657-10.3824 8.1721 2.9942-12.8583z"/></g><g mask="url(#k)"><path fill="#fff" d="m78.7719 67.0384-13.06 2.0574 8.9139-9.7533z"/></g><g mask="url(#l)"><path fill="#fff" d="m105.562 51.3992 12.473 4.3699-12.473 4.3699z"/></g><g mask="url(#m)"><path fill="#fff" d="m94.5315 71.7667 10.3365 8.2292-2.929-12.8772z"/></g><g mask="url(#n)"><path fill="#fff" d="m101.55 67.3776 13.048 2.1221-8.86-9.7951z"/></g><g mask="url(#o)"><path fill="#fff" d="m85.7819 39.7752-10.3405-8.2293 2.9294 12.8773z"/></g><g mask="url(#p)"><path fill="#fff" d="m78.7605 44.1643-13.0486-2.1221 8.8644 9.7951z"/></g><g mask="url(#q)"><path fill="#fff" d="m74.7509 51.1018-12.4765 4.3699 12.4765 4.3699z"/></g><g mask="url(#r)"><path fill="#fff" d="m94.5312 60.699-4.375 12.462-4.375-12.462z"/></g><g mask="url(#s)"><path fill="#2c2e82" d="m106.425 55.7689h-.836c0 4.2594-1.728 8.1074-4.52 10.9-2.7954 2.7926-6.6478 4.5147-10.9121 4.5147-4.2644 0-8.1168-1.7259-10.9126-4.5147-2.7959-2.7926-4.5199-6.6406-4.5199-10.9s1.7278-8.1074 4.5199-10.9c2.7958-2.7926 6.6482-4.5146 10.9126-4.5146 4.2643 0 8.1167 1.7258 10.9121 4.5146 2.796 2.7926 4.52 6.6406 4.52 10.9h.836.835c0-4.7128-1.915-8.9912-5.008-12.081-3.0935-3.0898-7.3731-5.0024-12.0951-5.0024-4.7183 0-9.0017 1.9126-12.0951 5.0024-3.0933 3.0898-5.0081 7.3644-5.0081 12.081 0 4.7128 1.9148 8.9913 5.0081 12.081 3.0934 3.0898 7.373 5.0024 12.0951 5.0024 4.7182 0 9.0016-1.9126 12.0951-5.0024 3.093-3.0897 5.008-7.3644 5.008-12.081z"/></g><path fill="#18b6f6" d="m155.734 45.43-6.666-6.6284-.102.0145v-.0727l-14.176-13.9982 3.493-3.3724-2.052-11.77417-9.738 12.06497c-1.659 1.6716-1.964 4.3899-.771 6.3958l6.084 10.0881c.932 1.5553 2.62 2.4856 4.439 2.4711l3.013-.0291z"/><path fill="#ac7ef4" d="m159.373 21.4309-1.339-2.4711-.698-1.2647-.277-.4942-.029.0291-3.668-6.3523c-.917-1.59894-2.634-2.58739-4.497-2.57285l-3.217.08721-9.592.02907c-1.819.01454-3.478.97392-4.395 2.52927l-5.837 11.5707 10.436-12.95162 13.682 15.03032-2.431 2.4566 1.456 11.7596.014-.029v.029h-.029l.029.0291 1.135 1.1048 5.517 5.3928c.233.2181.611-.0436.451-.3198l-3.406-6.7011 5.939-10.9747.189-.2181c.073-.0872.145-.1744.204-.2616 1.164-1.5844 1.324-3.7067.363-5.4365z"/><path fill="#fff" d="m149.984 24.5416-13.725-14.95762 1.95 11.71602-3.493 3.387 14.22 14.1145-1.281-11.7161z"/><circle cx="90" cy="55.805" r="15.5" fill="#d9d9d9"/></g></svg>